<svg xmlns="http://www.w3.org/2000/svg"  viewBox="0 0 64 64" width="100px" height="100px"><polygon fill="#7bbeeb" points="42,7 44,6 46,9 46,19 10,45 5,40"/><polygon fill="#85cbf8" points="5,22 10,17 46,45 46,54 43,58"/><polygon fill="#ace3ff" points="44,6 46,8 46,55 44,58 45,59 59,52 59,10 45,5"/><path fill="#85cbf8" d="M59,53h-2c-1.657,0-3-1.343-3-3V13c0-1.657,1.343-3,3-3h2V53z"/><path fill="#8d6c9f" d="M55,13h-2c-0.552,0-1,0.448-1,1s0.448,1,1,1h2c0.552,0,1-0.448,1-1S55.552,13,55,13z"/><path fill="#8d6c9f" d="M55,18h-2c-0.552,0-1,0.448-1,1s0.448,1,1,1h2c0.552,0,1-0.448,1-1S55.552,18,55,18z"/><path fill="#8d6c9f" d="M55,23h-2c-0.552,0-1,0.448-1,1s0.448,1,1,1h2c0.552,0,1-0.448,1-1S55.552,23,55,23z"/><path fill="#8d6c9f" d="M55,28h-2c-0.552,0-1,0.448-1,1s0.448,1,1,1h2c0.552,0,1-0.448,1-1S55.552,28,55,28z"/><path fill="#8d6c9f" d="M55,33h-2c-0.552,0-1,0.448-1,1s0.448,1,1,1h2c0.552,0,1-0.448,1-1S55.552,33,55,33z"/><path fill="#8d6c9f" d="M55,38h-2c-0.552,0-1,0.448-1,1s0.448,1,1,1h2c0.552,0,1-0.448,1-1S55.552,38,55,38z"/><path fill="#8d6c9f" d="M55,43h-2c-0.552,0-1,0.448-1,1s0.448,1,1,1h2c0.552,0,1-0.448,1-1S55.552,43,55,43z"/><path fill="#8d6c9f" d="M55,48h-2c-0.552,0-1,0.448-1,1s0.448,1,1,1h2c0.552,0,1-0.448,1-1S55.552,48,55,48z"/><path fill="#8d6c9f" d="M57.558,8.701l-10.242-4.31c-1.538-0.709-3.345-0.439-4.598,0.684L20.963,24.153l-9.681-7.705 c-0.825-0.643-2.006-0.568-2.747,0.171l-3.926,3.926c-0.4,0.4-0.622,0.954-0.608,1.52c0.013,0.566,0.261,1.109,0.672,1.483 l8.24,7.663l-8.209,7.198c-0.428,0.379-0.684,0.925-0.701,1.496s0.204,1.13,0.608,1.534l3.923,3.923 c0.401,0.402,0.938,0.607,1.474,0.607c0.439,0,0.88-0.138,1.248-0.417l9.457-7.089L42.71,58.92 c0.79,0.706,1.793,1.076,2.819,1.076c0.612,0,1.233-0.132,1.82-0.403l10.474-5.343c1.347-0.687,2.183-2.052,2.183-3.563V12.388 C60.006,10.773,59.045,9.327,57.558,8.701z M45.003,43.289L30.1,31.427l14.903-11.172V43.289z M43.148,7.358 c0.274-0.01,0.747,0.025,1.123,0.336c0.605,0.501,0.732,1.539,0.732,2.322v7.739L28.483,30.14l-5.931-4.721L43.148,7.358z M6.023,21.959l3.925-3.925c0.018-0.018,0.041-0.025,0.062-0.025c0.015,0,0.027,0.004,0.036,0.011l34.957,27.826v8.168 c0,0.778-0.125,1.808-0.721,2.292c-0.37,0.299-0.842,0.324-1.115,0.309L6.034,22.083C6.032,22.081,6.026,21.962,6.023,21.959z M10.053,43.955c-0.03,0.024-0.076,0.021-0.104-0.007l-3.923-3.923l0.001-0.115l8.359-7.33l4.84,4.5L10.053,43.955z M58.006,50.687c0,0.756-0.418,1.438-1.091,1.782l-10.438,5.325c-0.357,0.166-0.741,0.214-1.116,0.184 c0.05-0.035,0.102-0.057,0.152-0.096c0.989-0.784,1.49-2.085,1.49-3.868V10.017c0-1.782-0.5-3.09-1.487-3.888 c-0.049-0.04-0.1-0.065-0.15-0.101c0.38-0.028,0.771,0.023,1.142,0.194l10.274,4.323c0.743,0.313,1.224,1.036,1.224,1.843V50.687z"/></svg>